<svg width="28" height="8" viewBox="0 0 28 8" fill="none" xmlns="http://www.w3.org/2000/svg">
<path fill-rule="evenodd" clip-rule="evenodd" d="M3.5 0C1.575 0 0 1.64417 0 3.6537C0 5.66324 1.575 7.3074 3.5 7.3074C5.425 7.3074 7 5.66324 7 3.6537C7 1.64417 5.425 0 3.5 0ZM24.5 0C22.575 0 21 1.64417 21 3.6537C21 5.66324 22.575 7.3074 24.5 7.3074C26.425 7.3074 28 5.66324 28 3.6537C28 1.64417 26.425 0 24.5 0ZM10.5 3.6537C10.5 1.64417 12.075 0 14 0C15.925 0 17.5 1.64417 17.5 3.6537C17.5 5.66324 15.925 7.3074 14 7.3074C12.075 7.3074 10.5 5.66324 10.5 3.6537Z" fill="white"/>
</svg>
