<svg width="40" height="40" viewBox="0 0 40 40" fill="none" xmlns="http://www.w3.org/2000/svg">
<path d="M31.4645 31.9944L32.9795 32.7495L32.1977 31.2481L29.5279 26.121L29.4664 26.0029L29.3576 25.926L20.3045 19.5244L19.5399 20.2938L25.8789 29.1391L25.9585 29.2501L26.0807 29.311L31.4645 31.9944Z" stroke="white" stroke-width="1.1"/>
<path d="M35.9264 24.6561L37.6161 24.5527L36.1883 23.6433L31.2907 20.5237L31.1783 20.4522L31.0457 20.4399L20.0374 19.4257L19.76 20.4744L29.6925 24.9738L29.8168 25.0301L29.9531 25.0218L35.9264 24.6561Z" stroke="white" stroke-width="1.1"/>
<path d="M36.1212 16.0699L37.5326 15.1355L35.8415 15.0618L30.0291 14.8086L29.896 14.8028L29.775 14.8585L19.7568 19.4739L20.0409 20.5208L30.899 19.4507L31.0349 19.4373L31.1487 19.362L36.1212 16.0699Z" stroke="white" stroke-width="1.1"/>
<path d="M23.931 36.1186L24.8654 37.53L24.9391 35.8389L25.1893 30.0967L25.1951 29.9636L25.1393 29.8426L20.4865 19.7433L19.4396 20.0274L20.5039 30.8261L20.5172 30.9619L20.5926 31.0757L23.931 36.1186Z" stroke="white" stroke-width="1.1"/>
<path d="M31.9971 8.53629L32.7521 7.02137L31.2508 7.80313L26.0952 10.4878L25.977 10.5493L25.9001 10.6581L19.5379 19.6558L20.3073 20.4204L29.1673 14.0708L29.2783 13.9913L29.3392 13.8691L31.9971 8.53629Z" stroke="white" stroke-width="1.1"/>
<path d="M20.5346 20.0239L19.4859 19.7465L15.0216 29.6012L14.9653 29.7256L14.9736 29.8618L15.3451 35.9236L15.4486 37.6133L16.3579 36.1854L19.4283 31.3643L19.4998 31.252L19.512 31.1194L20.5346 20.0239Z" stroke="white" stroke-width="1.1"/>
<path d="M4.07712 15.3421L2.38751 15.4456L3.81529 16.355L8.6237 19.4175L8.73606 19.4891L8.8687 19.5013L19.9365 20.5211L20.2139 19.4724L10.385 15.0197L10.2607 14.9633L10.1244 14.9717L4.07712 15.3421Z" stroke="white" stroke-width="1.1"/>
<path d="M8.0065 31.4618L7.25129 32.9769L8.75277 32.195L13.8036 29.5648L13.9217 29.5032L13.9986 29.3945L20.436 20.291L19.6665 19.5264L10.8929 25.8143L10.7819 25.8938L10.721 26.016L8.0065 31.4618Z" stroke="white" stroke-width="1.1"/>
<path d="M3.8823 23.9283L2.47084 24.8628L4.162 24.9364L9.84546 25.1838L9.97853 25.1896L10.0995 25.1339L20.2171 20.473L19.933 19.4261L9.20095 20.4836L9.06509 20.497L8.95126 20.5724L3.8823 23.9283Z" stroke="white" stroke-width="1.1"/>
<path d="M8.53934 8.00362L7.02437 7.24841L7.80613 8.74985L10.4507 13.8291L10.5123 13.9472L10.621 14.0242L19.6694 20.4224L20.434 19.653L14.1355 10.8646L14.056 10.7536L13.9338 10.6927L8.53934 8.00362Z" stroke="white" stroke-width="1.1"/>
<path d="M24.6588 4.07444L24.5553 2.38483L23.6459 3.81259L20.5348 8.69718L20.4632 8.80954L20.451 8.94219L19.4393 19.9229L20.4879 20.2004L24.9757 10.2937L25.0321 10.1694L25.0237 10.0331L24.6588 4.07444Z" stroke="white" stroke-width="1.1"/>
<path d="M16.0725 3.87967L15.1381 2.46825L15.0644 4.15933L14.8137 9.91324L14.8079 10.0463L14.8636 10.1673L19.4874 20.2036L20.5342 19.9195L19.4706 9.12816L19.4572 8.99231L19.3818 8.8785L16.0725 3.87967Z" stroke="white" stroke-width="1.1"/>
</svg>
